HIERARCHY
ROOT Hips
{
	OFFSET 0.000000 0.000000 0.000000
	CHANNELS 6 Xposition Yposition Zposition Zrotation Yrotation Xrotation
	JOINT LHipJoint
	{
		OFFSET 0.000000 0.000000 0.000000
		CHANNELS 3 Zrotation Yrotation Xrotation
		JOINT LeftUpLeg
		{
			OFFSET 1.363060 -1.794630 0.839290
			CHANNELS 3 Zrotation Yrotation Xrotation
			JOINT LeftLeg
			{
				OFFSET 2.448110 -6.726130 0.000000
				CHANNELS 3 Zrotation Yrotation Xrotation
				JOINT LeftFoot
				{
					OFFSET 2.562200 -7.039590 0.000000
					CHANNELS 3 Zrotation Yrotation Xrotation
					JOINT LeftToeBase
					{
						OFFSET 0.157640 -0.433110 2.322550
						CHANNELS 3 Zrotation Yrotation Xrotation
						End Site
						{
							OFFSET 0.000000 0.000000 0.000000
						}
					}
				}
			}
		}
	}
	JOINT RHipJoint
	{
		OFFSET 0.000000 0.000000 0.000000
		CHANNELS 3 Zrotation Yrotation Xrotation
		JOINT RightUpLeg
		{
			OFFSET -1.305520 -1.794630 0.839290
			CHANNELS 3 Zrotation Yrotation Xrotation
			JOINT RightLeg
			{
				OFFSET -2.542530 -6.985550 0.000000
				CHANNELS 3 Zrotation Yrotation Xrotation
				JOINT RightFoot
				{
					OFFSET -2.568260 -7.056230 0.000000
					CHANNELS 3 Zrotation Yrotation Xrotation
					JOINT RightToeBase
					{
						OFFSET -0.164730 -0.452590 2.363150
						CHANNELS 3 Zrotation Yrotation Xrotation
						End Site
						{
							OFFSET 0.000000 0.000000 0.000000
						}
					}
				}
			}
		}
	}
	JOINT LowerBack
	{
		OFFSET 0.000000 0.000000 0.000000
		CHANNELS 3 Zrotation Yrotation Xrotation
		JOINT Spine
		{
			OFFSET 0.028270 2.035590 -0.193380
			CHANNELS 3 Zrotation Yrotation Xrotation
			JOINT Spine1
			{
				OFFSET 0.056720 2.048850 -0.042750
				CHANNELS 3 Zrotation Yrotation Xrotation
				JOINT Neck
				{
					OFFSET 0.000000 0.000000 0.000000
					CHANNELS 3 Zrotation Yrotation Xrotation
					JOINT Neck1
					{
						OFFSET -0.054170 1.746240 0.172020
						CHANNELS 3 Zrotation Yrotation Xrotation
						JOINT Head
						{
							OFFSET 0.104070 1.761360 -0.123970
							CHANNELS 3 Zrotation Yrotation Xrotation
							End Site
							{
								OFFSET 0.000000 0.000000 0.000000
							}
						}
					}
				}
				JOINT LeftShoulder
				{
					OFFSET 0.000000 0.000000 0.000000
					CHANNELS 3 Zrotation Yrotation Xrotation
					JOINT LeftArm
					{
						OFFSET 3.362410 1.200890 -0.311210
						CHANNELS 3 Zrotation Yrotation Xrotation
						JOINT LeftForeArm
						{
							OFFSET 4.983000 -0.000000 -0.000000
							CHANNELS 3 Zrotation Yrotation Xrotation
							JOINT LeftHand
							{
								OFFSET 3.483560 -0.000000 -0.000000
								CHANNELS 3 Zrotation Yrotation Xrotation
								JOINT LeftFingerBase
								{
									OFFSET 0.000000 0.000000 0.000000
									CHANNELS 3 Zrotation Yrotation Xrotation
									JOINT LeftHandIndex1
									{
										OFFSET 0.715260 -0.000000 -0.000000
										CHANNELS 3 Zrotation Yrotation Xrotation
										End Site
										{
											OFFSET 0.000000 0.000000 0.000000
										}
									}
								}
								JOINT LThumb
								{
									OFFSET 0.000000 0.000000 0.000000
									CHANNELS 3 Zrotation Yrotation Xrotation
									End Site
									{
										OFFSET 0.000000 0.000000 0.000000
									}
								}
							}
						}
					}
				}
				JOINT RightShoulder
				{
					OFFSET 0.000000 0.000000 0.000000
					CHANNELS 3 Zrotation Yrotation Xrotation
					JOINT RightArm
					{
						OFFSET -3.136600 1.374050 -0.404650
						CHANNELS 3 Zrotation Yrotation Xrotation
						JOINT RightForeArm
						{
							OFFSET -5.241900 -0.000000 -0.000000
							CHANNELS 3 Zrotation Yrotation Xrotation
							JOINT RightHand
							{
								OFFSET -3.444170 -0.000000 -0.000000
								CHANNELS 3 Zrotation Yrotation Xrotation
								JOINT RightFingerBase
								{
									OFFSET 0.000000 0.000000 0.000000
									CHANNELS 3 Zrotation Yrotation Xrotation
									JOINT RightHandIndex1
									{
										OFFSET -0.622530 -0.000000 -0.000000
										CHANNELS 3 Zrotation Yrotation Xrotation
										End Site
										{
											OFFSET 0.000000 0.000000 0.000000
										}
									}
								}
								JOINT RThumb
								{
									OFFSET 0.000000 0.000000 0.000000
									CHANNELS 3 Zrotation Yrotation Xrotation
									End Site
									{
										OFFSET 0.000000 0.000000 0.000000
									}
								}
							}
						}
					}
				}
			}
		}
	}
}
MOTION
Frames: 4
Frame Time: 0.008333
-5.968868 17.926544 23.391846 -4.288859 -6.762328 5.553823 2.106810 4.591624 1.971446 1.961569 3.038469 -12.202999 1.815792 9.338638 26.256763 2.129973 9.670036 19.618168 2.792064 12.288413 35.472523 8.727710 2.049667 8.016714 38.264778 12.453432 15.723323 4.115413 6.829871 25.782038 3.245640 23.473223 43.783913 2.923911 9.170403 37.121376 17.878429 5.592569 13.990277 6.438085 11.505053 8.789450 6.937663 6.159104 29.030264 12.651024 10.291200 21.602200 18.437756 13.381636 31.040071 15.557487 12.712801 23.262772 22.567966 21.440609 5.567482 66.089554 47.444321 120.179817 39.364128 32.796471 9.707584 3.354537 8.864200 112.160294 68.881126 100.498604 49.708748 5.373942 0.000000 0.000000 192.170013 259.268555 218.001022 33.514988 24.781954 8.324652 169.625351 56.952972 96.262192 75.857513 98.262634 51.647926 7.927275 7.575893 64.984192 480.641083 217.577087 359.275421 13.081497 0.000000 0.000000 467.743042 248.519836 482.731415
-6.001876 18.057869 23.515686 -4.338285 -6.816990 5.552267 2.084733 4.596859 1.964259 1.914295 3.015401 -12.388523 1.825952 9.358183 26.312115 2.126745 9.616192 19.607857 2.785550 12.310608 35.584808 8.656125 2.014420 7.991723 38.334499 12.412413 15.605526 4.105595 6.806765 25.732288 3.208706 23.352512 43.649445 2.893401 9.093858 37.028641 17.896727 5.565453 13.872329 6.428015 11.520023 8.696519 6.885231 6.160095 29.039257 12.525558 10.206695 21.510460 18.481310 13.265714 30.951239 15.505480 12.693950 23.191952 22.449203 21.383825 5.557131 65.164497 47.307640 119.815880 39.323273 32.540813 9.654710 3.339003 8.836784 111.785973 68.720123 100.197556 49.583313 5.310997 0.000000 0.000000 191.468262 258.550720 217.212036 33.413307 24.705297 8.291309 169.490189 56.800583 96.122322 75.455498 98.126099 51.429642 7.908914 7.549829 64.722145 479.011688 216.914261 358.073059 13.079138 0.000000 0.000000 466.196442 247.490707 481.202423
-6.034139 18.190790 23.645557 -4.386156 -6.868941 5.554362 2.065807 4.603893 1.958813 1.871824 2.996028 -12.564762 1.837933 9.382654 26.380592 2.125238 9.569666 19.607025 2.780639 12.337780 35.712444 8.592552 1.982102 7.971907 38.420033 12.379560 15.501324 4.098484 6.788325 25.697462 3.175292 23.248259 43.537273 2.865590 9.024323 36.959042 17.922539 5.543386 13.770212 6.423057 11.542478 8.617484 6.841485 6.166066 29.069799 12.420490 10.136818 21.444992 18.536175 13.168658 30.889498 15.468711 12.684200 23.139847 22.351562 21.343773 5.550800 64.334496 47.204445 119.540337 39.305038 32.314667 9.609165 3.325801 8.814375 111.470192 68.591415 99.942619 49.478100 5.251741 0.000000 0.000000 190.837296 257.914246 216.497482 33.321980 24.636086 8.260608 169.394455 56.663933 96.005630 75.079079 98.012970 51.227104 7.892573 7.525919 64.479393 477.517334 216.311264 356.972168 13.079484 0.000000 0.000000 464.783936 246.538086 479.811920
-6.066365 18.323763 23.775665 -4.433975 -6.920797 5.556601 2.047013 4.610991 1.953435 1.829556 2.976827 -12.740576 1.849998 9.407342 26.449686 2.123810 9.523463 19.606649 2.775803 12.365181 35.840763 8.529269 1.949887 7.952265 38.506123 12.347027 15.397626 4.091470 6.770041 25.663149 3.141999 23.144691 43.425953 2.837915 8.955153 36.890625 17.948641 5.521519 13.668694 6.418263 11.565172 8.538888 6.797981 6.172198 29.100994 12.315903 10.067283 21.379961 18.591230 13.071815 30.828074 15.432152 12.674554 23.087976 22.254128 21.303894 5.544508 63.505547 47.101681 119.265854 39.286976 32.088539 9.563591 3.312583 8.791926 111.153900 68.462479 99.687347 49.372749 5.192451 0.000000 0.000000 190.205917 257.277130 215.782471 33.230576 24.566824 8.229884 169.298431 56.527149 95.888748 74.702415 97.899628 51.024399 7.876211 7.501985 64.236435 476.021515 215.707626 355.870239 13.079802 0.000000 0.000000 463.369995 245.584641 478.419830
